<?xml version="1.0" encoding="utf-8"?>
<!-- Generator: Adobe Illustrator 16.0.0, SVG Export Plug-In . SVG Version: 6.00 Build 0)  -->
<svg version="1.2" baseProfile="tiny" id="Layer_1" xmlns="http://www.w3.org/2000/svg" xmlns:xlink="http://www.w3.org/1999/xlink"
	 x="0px" y="0px" width="1000px" height="1000px" viewBox="0 0 1000 1000" xml:space="preserve">
<g id="Layer_1_1_">
	<g>
		<g>
			<path d="M985.252,714.649C867.635,596.999,849.936,537.966,849.936,350c0-193.301-156.664-350-349.933-350
				C306.735,0,150.07,156.701,150.07,350c0,101.349-2.699,139.183-16.65,185.632C116.07,593.499,80.453,648.9,14.736,714.65
				c-31.482,31.5-9.182,85.349,35.352,85.349h277.448l-2.519,25c0,96.65,78.334,175,174.968,175c96.633,0,174.967-78.35,174.967-175
				l-2.519-25H949.9C994.451,799.998,1016.752,746.149,985.252,714.649z M500.02,949.998c-69.019,0-124.982-55.982-124.982-125
				l2.518-25h244.9l2.551,25C625.003,894.016,569.036,949.998,500.02,949.998z M50.104,749.999c149.966-150,149.966-250,149.966-400
				c0-165.666,134.284-300,299.933-300c165.65,0,299.933,134.333,299.948,300c0,150,0,250,149.967,400H50.104z"/>
		</g>
	</g>
</g>
</svg>
