<?xml version="1.0" encoding="utf-8"?>
<!-- Generator: Adobe Illustrator 16.0.0, SVG Export Plug-In . SVG Version: 6.00 Build 0)  -->
<!DOCTYPE svg PUBLIC "-//W3C//DTD SVG 1.1//EN" "http://www.w3.org/Graphics/SVG/1.1/DTD/svg11.dtd">
<svg version="1.1" xmlns="http://www.w3.org/2000/svg" xmlns:xlink="http://www.w3.org/1999/xlink" x="0px" y="0px" width="1000px"
	 height="1000px" viewBox="0 0 1000 1000" enable-background="new 0 0 1000 1000" xml:space="preserve">
<g id="Layer_2_1_">
	<g id="Layer_5_1_">
		<g>
			<g>
				<path d="M718.184,108.744H281.809 M185.982,108.744h-62.634c-40.444,0-73.348,29.61-73.348,66.005v707.83
					c0,36.348,32.859,65.918,73.25,65.918h753.5c40.391,0,73.25-29.57,73.25-65.918v-707.83
					c-0.004-36.395-32.906-66.005-73.355-66.005h-62.633 M784.713,108.744h-37.227 M252.51,108.744h-37.225"/>
			</g>
		</g>
	</g>
</g>
<g id="Layer_5_3_">
	<path fill="#FCFEFF" d="M830.51,160.182h-54.961h-25.714h-32.664h-25.71H308.546h-25.713h-32.666h-25.709h-54.959
		c-35.494,0-64.366,25.982-64.369,57.918v621.114c0,31.895,28.834,57.843,64.276,57.843h661.19
		c35.442,0,64.275-25.948,64.275-57.843V218.101C894.871,186.165,865.998,160.182,830.51,160.182z"/>
</g>
<g id="Layer_4_1_">
	<g>
		<path d="M690.532,589.423h81.375c18.396,0,33.364-13.47,33.364-30.026v-73.229c0-16.557-14.967-30.026-33.364-30.026h-81.375
			c-18.398,0-33.367,13.469-33.367,30.026v73.229C657.165,575.953,672.134,589.423,690.532,589.423z M307.463,456.142h-81.377
			c-18.398,0-33.365,13.469-33.365,30.026v73.229c0,16.557,14.967,30.026,33.365,30.026h81.377c18.396,0,33.365-13.47,33.365-30.026
			v-73.23C340.828,469.607,325.859,456.142,307.463,456.142z M690.532,779.647h81.375c18.396,0,33.364-13.465,33.364-30.023v-73.229
			c0-16.554-14.967-30.025-33.364-30.025h-81.375c-18.398,0-33.367,13.472-33.367,30.025v73.229
			C657.165,766.183,672.134,779.647,690.532,779.647z M307.463,646.366h-81.377c-18.398,0-33.365,13.472-33.365,30.028v73.229
			c0,16.557,14.967,30.023,33.365,30.023h81.377c18.396,0,33.365-13.467,33.365-30.023v-73.229
			C340.828,659.836,325.859,646.366,307.463,646.366z M458.31,589.423h81.376c18.396,0,33.364-13.47,33.364-30.026v-73.229
			c0-16.557-14.968-30.026-33.364-30.026H458.31c-18.398,0-33.366,13.469-33.366,30.026v73.229
			C424.943,575.953,439.911,589.423,458.31,589.423z M458.31,779.647h81.376c18.396,0,33.364-13.465,33.364-30.023v-73.229
			c0-16.554-14.968-30.025-33.364-30.025H458.31c-18.398,0-33.366,13.472-33.366,30.025v73.229
			C424.943,766.183,439.911,779.647,458.31,779.647z"/>
	</g>
	<path d="M192.721,310.612v6.588c0,16.557,14.967,30.026,33.365,30.026h545.82c18.396,0,33.365-13.47,33.365-30.026v-6.59
		c0-16.559-14.969-30.024-33.365-30.024h-545.82C207.688,280.585,192.721,294.054,192.721,310.612"/>
</g>
</svg>
