<?xml version="1.0" encoding="utf-8"?>
<!-- Generator: Adobe Illustrator 16.0.0, SVG Export Plug-In . SVG Version: 6.00 Build 0)  -->
<svg version="1.2" baseProfile="tiny" id="Layer_1" xmlns="http://www.w3.org/2000/svg" xmlns:xlink="http://www.w3.org/1999/xlink"
	 x="0px" y="0px" width="1000px" height="1000px" viewBox="0 0 1000 1000" xml:space="preserve">
<g id="Layer_5">
	<g>
		<g>
			<path d="M763.729,490.506h69.76c15.771,0,28.603-11.547,28.603-25.739v-62.777c0-14.193-12.83-25.74-28.603-25.74h-69.76
				c-15.771,0-28.604,11.546-28.604,25.74v62.777C735.124,478.959,747.958,490.506,763.729,490.506z M764.424,402.616h68.366v61.522
				h-68.366V402.616L764.424,402.616z M763.729,657.499h69.76c15.771,0,28.603-11.549,28.603-25.741v-62.778
				c0-14.19-12.83-25.737-28.603-25.737h-69.76c-15.771,0-28.604,11.547-28.604,25.737v62.778
				C735.124,645.95,747.958,657.499,763.729,657.499z M764.424,569.608h68.366v61.522h-68.366V569.608L764.424,569.608z
				 M564.651,490.506h69.761c15.771,0,28.602-11.547,28.602-25.739v-62.777c0-14.193-12.83-25.74-28.602-25.74h-69.761
				c-15.772,0-28.604,11.546-28.604,25.74v62.777C536.047,478.959,548.879,490.506,564.651,490.506z M565.348,402.616h68.365v61.522
				h-68.365V402.616z M236.258,702.402h-69.762c-15.772,0-28.603,11.547-28.603,25.737v62.78c0,14.194,12.831,25.739,28.603,25.739
				h69.762c15.771,0,28.603-11.545,28.603-25.739v-62.78C264.861,713.949,252.029,702.402,236.258,702.402z M235.56,790.293h-68.367
				v-61.522h68.367V790.293z M236.258,376.249h-69.762c-15.772,0-28.603,11.546-28.603,25.74v62.777
				c0,14.192,12.831,25.739,28.603,25.739h69.762c15.771,0,28.603-11.547,28.603-25.739v-62.778
				C264.861,387.793,252.029,376.249,236.258,376.249z M235.56,464.139h-68.367v-61.522h68.367V464.139z M564.651,653.581h69.761
				c15.771,0,28.602-11.544,28.602-25.738v-62.777c0-14.192-12.83-25.741-28.602-25.741h-69.761
				c-15.772,0-28.604,11.549-28.604,25.741v62.777C536.047,642.037,548.879,653.581,564.651,653.581z M565.348,565.69h68.365v61.522
				h-68.365V565.69z M876.641,108.744h-62.633V88.587c0-22.107-19.986-40.091-44.552-40.091h-6.726
				c-24.563,0-44.551,17.984-44.551,40.091v20.157H281.804V88.587c0-22.107-19.984-40.091-44.549-40.091h-6.728
				c-24.564,0-44.549,17.984-44.549,40.091v20.157h-62.634c-40.444,0-73.348,29.61-73.348,66.005v707.829
				c0,36.347,32.859,65.918,73.25,65.918h753.5c40.391,0,73.25-29.571,73.25-65.918V174.749
				C949.992,138.354,917.09,108.744,876.641,108.744z M747.481,88.587c0-7.568,6.84-13.724,15.251-13.724h6.728
				c8.407,0,15.249,6.156,15.249,13.724v20.157h-37.228V88.587z M215.279,88.587c0-7.568,6.84-13.724,15.249-13.724h6.728
				c8.409,0,15.25,6.156,15.25,13.724v20.157h-37.225V88.587H215.279z M920.691,882.578c0,21.808-19.715,39.551-43.951,39.551
				H123.243c-24.235,0-43.95-17.743-43.95-39.551v-0.081c12.275,8.32,27.533,13.265,44.05,13.265h593.979
				c19.591,0,38.015-6.866,51.866-19.332l151.504-136.34L920.691,882.578L920.691,882.578z M754.237,852.592
				c1.146-4.267,1.772-8.717,1.772-13.293v-88.003c0-16.596,15.005-30.096,33.447-30.096h97.789c5.089,0,10.035-0.563,14.771-1.599
				L754.237,852.592z M920.691,297.146H296.454c-8.09,0-14.65,5.902-14.65,13.184c0,7.282,6.56,13.184,14.65,13.184h624.238v341.223
				c0,16.597-15,30.097-33.444,30.097h-97.789c-34.599,0-62.748,25.33-62.748,56.463V839.3c0,16.596-15,30.1-33.441,30.1H123.343
				c-24.288,0-44.048-17.783-44.048-39.643V323.514h158.559c8.091,0,14.65-5.902,14.65-13.184c0-7.282-6.559-13.184-14.65-13.184
				H79.293V174.749c0-21.856,19.76-39.638,44.047-39.638h62.637v38.764c0,22.105,19.985,40.089,44.549,40.089
				c8.091,0,14.65-5.902,14.65-13.184c0-7.282-6.56-13.184-14.65-13.184c-8.409,0-15.249-6.156-15.249-13.722V135.11H718.18v38.764
				c0,22.105,19.986,40.089,44.553,40.089c8.088,0,14.65-5.902,14.65-13.184c0-7.282-6.563-13.184-14.65-13.184
				c-8.411,0-15.251-6.156-15.251-13.722v-38.764h129.163c24.286,0,44.047,17.782,44.047,39.638V297.146L920.691,297.146z
				 M236.258,539.323h-69.762c-15.772,0-28.603,11.549-28.603,25.741v62.777c0,14.194,12.831,25.738,28.603,25.738h69.762
				c15.771,0,28.603-11.544,28.603-25.738v-62.777C264.861,550.87,252.029,539.323,236.258,539.323z M235.56,627.214h-68.367V565.69
				h68.367V627.214z M365.574,490.506h69.761c15.771,0,28.603-11.547,28.603-25.739v-62.777c0-14.193-12.831-25.74-28.603-25.74
				h-69.761c-15.772,0-28.604,11.546-28.604,25.74v62.777C336.971,478.959,349.802,490.506,365.574,490.506z M366.271,402.616
				h68.366v61.522h-68.366V402.616z M565.33,790.293c-0.362-6.989-6.774-12.556-14.634-12.556c-8.093,0-14.649,5.901-14.649,13.184
				c0,14.194,12.83,25.739,28.603,25.739h69.764c15.771,0,28.602-11.545,28.602-25.739v-62.779c0-14.191-12.83-25.738-28.602-25.738
				h-69.764c-15.771,0-28.603,11.547-28.603,25.738v18.107c0,7.279,6.558,13.184,14.649,13.184s14.648-5.903,14.648-13.184v-17.479
				h68.367v61.522H565.33z M365.574,653.581h69.761c15.771,0,28.603-11.544,28.603-25.738v-62.777
				c0-14.192-12.831-25.741-28.603-25.741h-69.761c-15.772,0-28.604,11.549-28.604,25.741v62.777
				C336.971,642.037,349.802,653.581,365.574,653.581z M366.271,565.69h68.366v61.522h-68.366V565.69z M365.574,816.66h69.761
				c15.771,0,28.603-11.545,28.603-25.739v-62.78c0-14.19-12.831-25.737-28.603-25.737h-69.761
				c-15.772,0-28.604,11.547-28.604,25.737v62.78C336.971,805.115,349.802,816.66,365.574,816.66z M366.271,728.771h68.366v61.522
				h-68.366V728.771z"/>
		</g>
	</g>
</g>
</svg>
