<?xml version="1.0" encoding="utf-8"?>
<!-- Generator: Adobe Illustrator 16.0.0, SVG Export Plug-In . SVG Version: 6.00 Build 0)  -->
<svg version="1.2" baseProfile="tiny" id="Layer_1" xmlns="http://www.w3.org/2000/svg" xmlns:xlink="http://www.w3.org/1999/xlink"
	 x="0px" y="0px" width="1000px" height="1000px" viewBox="0 0 1000 1000" xml:space="preserve">
<g id="Layer_6">
	<g>
		<g>
			<g>
				<path d="M995.973,432.726l-133.709-268.54c-5.707-11.449-17.393-18.686-30.18-18.686H166.916
					c-12.787,0-24.473,7.236-30.18,18.686L3.027,432.726c-2.324,4.662-3.527,9.81-3.527,15.021v371.911
					c0,18.617,15.09,33.707,33.707,33.707h932.584c18.617,0,33.707-15.09,33.707-33.707v-371.91
					C999.5,442.535,998.297,437.388,995.973,432.726z M187.781,212.916h623.428l100.707,202.248H693.883
					c-15.934,0-29.719,11.292-33.012,26.876c-1.203,5.698-31,139.417-166.988,139.417S328.095,447.739,326.916,442.175
					c-3.181-15.719-17-27.011-33.034-27.011H87.084L187.781,212.916z M932.084,785.951H66.916V482.58h201.383
					c23.686,69.021,91.103,166.293,225.584,166.293c134.494,0,201.91-97.271,225.583-166.293h212.617L932.084,785.951
					L932.084,785.951z"/>
			</g>
		</g>
	</g>
</g>
</svg>
