<?xml version="1.0" encoding="utf-8"?>
<!-- Generator: Adobe Illustrator 16.0.0, SVG Export Plug-In . SVG Version: 6.00 Build 0)  -->
<svg version="1.2" baseProfile="tiny" id="Layer_1" xmlns="http://www.w3.org/2000/svg" xmlns:xlink="http://www.w3.org/1999/xlink"
	 x="0px" y="0px" width="1000px" height="1000px" viewBox="0 0 1000 1000" xml:space="preserve">
<g id="Layer_3">
	<g>
		<g>
			<g>
				<path d="M937.563,166.144H79.5c-11.5,0-20.834,14.561-20.834,32.5s9.334,32.5,20.834,32.5h858.064
					c11.5,0,20.834-14.561,20.834-32.5S949.063,166.144,937.563,166.144z"/>
			</g>
		</g>
		<g>
			<g>
				<path d="M937.563,457.81H79.5c-11.5,0-20.834,14.562-20.834,32.5c0,17.94,9.334,32.5,20.834,32.5h858.064
					c11.5,0,20.834-14.56,20.834-32.5C958.398,472.37,949.063,457.81,937.563,457.81z"/>
			</g>
		</g>
		<g>
			<g>
				<path d="M937.563,749.478H79.5c-11.5,0-20.834,14.56-20.834,32.498c0,17.94,9.334,32.502,20.834,32.502h858.064
					c11.5,0,20.834-14.562,20.834-32.502C958.396,764.036,949.063,749.478,937.563,749.478z"/>
			</g>
		</g>
	</g>
</g>
</svg>


