<?xml version="1.0" encoding="utf-8"?>
<!-- Generator: Adobe Illustrator 16.0.0, SVG Export Plug-In . SVG Version: 6.00 Build 0)  -->
<svg version="1.2" baseProfile="tiny" id="Layer_1" xmlns="http://www.w3.org/2000/svg" xmlns:xlink="http://www.w3.org/1999/xlink"
	 x="0px" y="0px" width="1000px" height="1000px" viewBox="0 0 1000 1000" xml:space="preserve">
<g id="Layer_8">
	<g>
		<path d="M953.067,468.3H525.368V37.536c0-15.747-13.785-28.531-29.537-28.531c-15.747,0-28.531,12.785-28.531,28.531V468.3H50.145
			c-15.747,0-28.531,12.784-28.531,28.531c0,15.751,12.785,28.537,28.531,28.537H465.3v438.977
			c0,15.752,14.784,28.536,30.531,28.536c15.751,0,30.537-12.784,30.537-28.536V525.368h426.699
			c15.752,0,28.536-12.785,28.536-28.537C981.604,481.084,968.819,468.3,953.067,468.3z"/>
	</g>
</g>
</svg>
