<?xml version="1.0" encoding="utf-8"?>
<!-- Generator: Adobe Illustrator 16.0.0, SVG Export Plug-In . SVG Version: 6.00 Build 0)  -->
<svg version="1.2" baseProfile="tiny" id="Layer_9" xmlns="http://www.w3.org/2000/svg" xmlns:xlink="http://www.w3.org/1999/xlink"
	 x="0px" y="0px" width="1000px" height="1000px" viewBox="0 0 1000 1000" xml:space="preserve">
<g>
	<g>
		<path d="M965.813,909.563L735.734,679.484c57.031-69.531,91.406-158.594,91.406-255.665c0-222.656-180.664-403.32-403.32-403.32
			C200.969,20.5,20.5,201.164,20.5,423.82c0,222.657,180.469,403.321,403.321,403.321c97.07,0,185.937-34.18,255.468-91.211
			l230.078,229.883c15.625,15.625,40.82,15.625,56.445,0C981.438,950.383,981.438,924.992,965.813,909.563z M423.821,746.867
			c-178.321,0-323.243-144.922-323.243-323.047c0-178.125,144.922-323.242,323.243-323.242
			c178.125,0,323.242,145.117,323.242,323.242C747.063,601.945,601.945,746.867,423.821,746.867z"/>
	</g>
</g>
</svg>
